<?xml version="1.0" encoding="utf-8"?>
<svg xmlns="http://www.w3.org/2000/svg" xmlns:xlink="http://www.w3.org/1999/xlink" width="960" height="480" viewBox="0 0 3840 1920">
<defs>
  <clipPath id="clip920">
    <rect x="0" y="0" width="3840" height="1920"/>
  </clipPath>
</defs>
<path clip-path="url(#clip920)" d="
M0 1920 L3840 1920 L3840 0 L0 0  Z
  " fill="#ffffff" fill-rule="evenodd" fill-opacity="1"/>
<defs>
  <clipPath id="clip921">
    <rect x="768" y="0" width="2689" height="1920"/>
  </clipPath>
</defs>
<path clip-path="url(#clip920)" d="
M125.281 1811.89 L3792.76 1811.89 L3792.76 47.2441 L125.281 47.2441  Z
  " fill="#ffffff" fill-rule="evenodd" fill-opacity="1"/>
<defs>
  <clipPath id="clip922">
    <rect x="125" y="47" width="3668" height="1766"/>
  </clipPath>
</defs>
<polyline clip-path="url(#clip922)" style="stroke:#000000; stroke-linecap:butt; stroke-linejoin:round; stroke-width:2; stroke-opacity:0.1; fill:none" points="
  229.077,1811.89 229.077,47.2441 
  "/>
<polyline clip-path="url(#clip922)" style="stroke:#000000; stroke-linecap:butt; stroke-linejoin:round; stroke-width:2; stroke-opacity:0.1; fill:none" points="
  921.054,1811.89 921.054,47.2441 
  "/>
<polyline clip-path="url(#clip922)" style="stroke:#000000; stroke-linecap:butt; stroke-linejoin:round; stroke-width:2; stroke-opacity:0.1; fill:none" points="
  1613.03,1811.89 1613.03,47.2441 
  "/>
<polyline clip-path="url(#clip922)" style="stroke:#000000; stroke-linecap:butt; stroke-linejoin:round; stroke-width:2; stroke-opacity:0.1; fill:none" points="
  2305.01,1811.89 2305.01,47.2441 
  "/>
<polyline clip-path="url(#clip922)" style="stroke:#000000; stroke-linecap:butt; stroke-linejoin:round; stroke-width:2; stroke-opacity:0.1; fill:none" points="
  2996.98,1811.89 2996.98,47.2441 
  "/>
<polyline clip-path="url(#clip922)" style="stroke:#000000; stroke-linecap:butt; stroke-linejoin:round; stroke-width:2; stroke-opacity:0.1; fill:none" points="
  3688.96,1811.89 3688.96,47.2441 
  "/>
<polyline clip-path="url(#clip920)" style="stroke:#000000; stroke-linecap:butt; stroke-linejoin:round; stroke-width:4; stroke-opacity:1; fill:none" points="
  125.281,1811.89 3792.76,1811.89 
  "/>
<polyline clip-path="url(#clip920)" style="stroke:#000000; stroke-linecap:butt; stroke-linejoin:round; stroke-width:4; stroke-opacity:1; fill:none" points="
  229.077,1811.89 229.077,1792.99 
  "/>
<polyline clip-path="url(#clip920)" style="stroke:#000000; stroke-linecap:butt; stroke-linejoin:round; stroke-width:4; stroke-opacity:1; fill:none" points="
  921.054,1811.89 921.054,1792.99 
  "/>
<polyline clip-path="url(#clip920)" style="stroke:#000000; stroke-linecap:butt; stroke-linejoin:round; stroke-width:4; stroke-opacity:1; fill:none" points="
  1613.03,1811.89 1613.03,1792.99 
  "/>
<polyline clip-path="url(#clip920)" style="stroke:#000000; stroke-linecap:butt; stroke-linejoin:round; stroke-width:4; stroke-opacity:1; fill:none" points="
  2305.01,1811.89 2305.01,1792.99 
  "/>
<polyline clip-path="url(#clip920)" style="stroke:#000000; stroke-linecap:butt; stroke-linejoin:round; stroke-width:4; stroke-opacity:1; fill:none" points="
  2996.98,1811.89 2996.98,1792.99 
  "/>
<polyline clip-path="url(#clip920)" style="stroke:#000000; stroke-linecap:butt; stroke-linejoin:round; stroke-width:4; stroke-opacity:1; fill:none" points="
  3688.96,1811.89 3688.96,1792.99 
  "/>
<path clip-path="url(#clip920)" d="M219.459 1881.87 L227.098 1881.87 L227.098 1855.51 L218.788 1857.17 L218.788 1852.91 L227.052 1851.25 L231.728 1851.25 L231.728 1881.87 L239.367 1881.87 L239.367 1885.81 L219.459 1885.81 L219.459 1881.87 Z" fill="#000000" fill-rule="evenodd" fill-opacity="1" /><path clip-path="url(#clip920)" d="M915.707 1881.87 L932.026 1881.87 L932.026 1885.81 L910.082 1885.81 L910.082 1881.87 Q912.744 1879.12 917.327 1874.49 Q921.933 1869.84 923.114 1868.49 Q925.359 1865.97 926.239 1864.23 Q927.142 1862.47 927.142 1860.78 Q927.142 1858.03 925.197 1856.29 Q923.276 1854.56 920.174 1854.56 Q917.975 1854.56 915.521 1855.32 Q913.091 1856.09 910.313 1857.64 L910.313 1852.91 Q913.137 1851.78 915.591 1851.2 Q918.045 1850.62 920.082 1850.62 Q925.452 1850.62 928.646 1853.31 Q931.841 1855.99 931.841 1860.48 Q931.841 1862.61 931.031 1864.53 Q930.244 1866.43 928.137 1869.03 Q927.558 1869.7 924.457 1872.91 Q921.355 1876.11 915.707 1881.87 Z" fill="#000000" fill-rule="evenodd" fill-opacity="1" /><path clip-path="url(#clip920)" d="M1617.28 1867.17 Q1620.63 1867.89 1622.51 1870.16 Q1624.41 1872.43 1624.41 1875.76 Q1624.41 1880.88 1620.89 1883.68 Q1617.37 1886.48 1610.89 1886.48 Q1608.71 1886.48 1606.4 1886.04 Q1604.11 1885.62 1601.65 1884.77 L1601.65 1880.25 Q1603.6 1881.39 1605.91 1881.97 Q1608.23 1882.54 1610.75 1882.54 Q1615.15 1882.54 1617.44 1880.81 Q1619.75 1879.07 1619.75 1875.76 Q1619.75 1872.71 1617.6 1870.99 Q1615.47 1869.26 1611.65 1869.26 L1607.63 1869.26 L1607.63 1865.41 L1611.84 1865.41 Q1615.29 1865.41 1617.12 1864.05 Q1618.94 1862.66 1618.94 1860.07 Q1618.94 1857.41 1617.05 1855.99 Q1615.17 1854.56 1611.65 1854.56 Q1609.73 1854.56 1607.53 1854.97 Q1605.33 1855.39 1602.69 1856.27 L1602.69 1852.1 Q1605.36 1851.36 1607.67 1850.99 Q1610.01 1850.62 1612.07 1850.62 Q1617.39 1850.62 1620.5 1853.05 Q1623.6 1855.46 1623.6 1859.58 Q1623.6 1862.45 1621.95 1864.44 Q1620.31 1866.41 1617.28 1867.17 Z" fill="#000000" fill-rule="evenodd" fill-opacity="1" /><path clip-path="url(#clip920)" d="M2308.02 1855.32 L2296.21 1873.77 L2308.02 1873.77 L2308.02 1855.32 M2306.79 1851.25 L2312.67 1851.25 L2312.67 1873.77 L2317.6 1873.77 L2317.6 1877.66 L2312.67 1877.66 L2312.67 1885.81 L2308.02 1885.81 L2308.02 1877.66 L2292.41 1877.66 L2292.41 1873.15 L2306.79 1851.25 Z" fill="#000000" fill-rule="evenodd" fill-opacity="1" /><path clip-path="url(#clip920)" d="M2987.26 1851.25 L3005.62 1851.25 L3005.62 1855.18 L2991.54 1855.18 L2991.54 1863.66 Q2992.56 1863.31 2993.58 1863.15 Q2994.6 1862.96 2995.62 1862.96 Q3001.4 1862.96 3004.78 1866.13 Q3008.16 1869.3 3008.16 1874.72 Q3008.16 1880.3 3004.69 1883.4 Q3001.22 1886.48 2994.9 1886.48 Q2992.72 1886.48 2990.46 1886.11 Q2988.21 1885.74 2985.8 1885 L2985.8 1880.3 Q2987.89 1881.43 2990.11 1881.99 Q2992.33 1882.54 2994.81 1882.54 Q2998.81 1882.54 3001.15 1880.44 Q3003.49 1878.33 3003.49 1874.72 Q3003.49 1871.11 3001.15 1869 Q2998.81 1866.9 2994.81 1866.9 Q2992.93 1866.9 2991.06 1867.31 Q2989.21 1867.73 2987.26 1868.61 L2987.26 1851.25 Z" fill="#000000" fill-rule="evenodd" fill-opacity="1" /><path clip-path="url(#clip920)" d="M3689.36 1866.66 Q3686.22 1866.66 3684.36 1868.82 Q3682.54 1870.97 3682.54 1874.72 Q3682.54 1878.45 3684.36 1880.62 Q3686.22 1882.78 3689.36 1882.78 Q3692.51 1882.78 3694.34 1880.62 Q3696.19 1878.45 3696.19 1874.72 Q3696.19 1870.97 3694.34 1868.82 Q3692.51 1866.66 3689.36 1866.66 M3698.65 1852.01 L3698.65 1856.27 Q3696.89 1855.44 3695.08 1855 Q3693.3 1854.56 3691.54 1854.56 Q3686.91 1854.56 3684.46 1857.68 Q3682.03 1860.81 3681.68 1867.13 Q3683.05 1865.11 3685.11 1864.05 Q3687.17 1862.96 3689.64 1862.96 Q3694.85 1862.96 3697.86 1866.13 Q3700.89 1869.28 3700.89 1874.72 Q3700.89 1880.04 3697.74 1883.26 Q3694.6 1886.48 3689.36 1886.48 Q3683.37 1886.48 3680.2 1881.9 Q3677.03 1877.29 3677.03 1868.56 Q3677.03 1860.37 3680.92 1855.51 Q3684.8 1850.62 3691.36 1850.62 Q3693.11 1850.62 3694.9 1850.97 Q3696.7 1851.32 3698.65 1852.01 Z" fill="#000000" fill-rule="evenodd" fill-opacity="1" /><polyline clip-path="url(#clip922)" style="stroke:#000000; stroke-linecap:butt; stroke-linejoin:round; stroke-width:2; stroke-opacity:0.1; fill:none" points="
  125.281,1761.95 3792.76,1761.95 
  "/>
<polyline clip-path="url(#clip922)" style="stroke:#000000; stroke-linecap:butt; stroke-linejoin:round; stroke-width:2; stroke-opacity:0.1; fill:none" points="
  125.281,1323.47 3792.76,1323.47 
  "/>
<polyline clip-path="url(#clip922)" style="stroke:#000000; stroke-linecap:butt; stroke-linejoin:round; stroke-width:2; stroke-opacity:0.1; fill:none" points="
  125.281,884.988 3792.76,884.988 
  "/>
<polyline clip-path="url(#clip922)" style="stroke:#000000; stroke-linecap:butt; stroke-linejoin:round; stroke-width:2; stroke-opacity:0.1; fill:none" points="
  125.281,446.509 3792.76,446.509 
  "/>
<polyline clip-path="url(#clip920)" style="stroke:#000000; stroke-linecap:butt; stroke-linejoin:round; stroke-width:4; stroke-opacity:1; fill:none" points="
  125.281,1811.89 125.281,47.2441 
  "/>
<polyline clip-path="url(#clip920)" style="stroke:#000000; stroke-linecap:butt; stroke-linejoin:round; stroke-width:4; stroke-opacity:1; fill:none" points="
  125.281,1761.95 144.179,1761.95 
  "/>
<polyline clip-path="url(#clip920)" style="stroke:#000000; stroke-linecap:butt; stroke-linejoin:round; stroke-width:4; stroke-opacity:1; fill:none" points="
  125.281,1323.47 144.179,1323.47 
  "/>
<polyline clip-path="url(#clip920)" style="stroke:#000000; stroke-linecap:butt; stroke-linejoin:round; stroke-width:4; stroke-opacity:1; fill:none" points="
  125.281,884.988 144.179,884.988 
  "/>
<polyline clip-path="url(#clip920)" style="stroke:#000000; stroke-linecap:butt; stroke-linejoin:round; stroke-width:4; stroke-opacity:1; fill:none" points="
  125.281,446.509 144.179,446.509 
  "/>
<path clip-path="url(#clip920)" d="M55.7365 1747.74 Q52.1254 1747.74 50.2967 1751.31 Q48.4912 1754.85 48.4912 1761.98 Q48.4912 1769.09 50.2967 1772.65 Q52.1254 1776.19 55.7365 1776.19 Q59.3707 1776.19 61.1763 1772.65 Q63.005 1769.09 63.005 1761.98 Q63.005 1754.85 61.1763 1751.31 Q59.3707 1747.74 55.7365 1747.74 M55.7365 1744.04 Q61.5467 1744.04 64.6022 1748.65 Q67.6809 1753.23 67.6809 1761.98 Q67.6809 1770.71 64.6022 1775.31 Q61.5467 1779.9 55.7365 1779.9 Q49.9264 1779.9 46.8477 1775.31 Q43.7921 1770.71 43.7921 1761.98 Q43.7921 1753.23 46.8477 1748.65 Q49.9264 1744.04 55.7365 1744.04 Z" fill="#000000" fill-rule="evenodd" fill-opacity="1" /><path clip-path="url(#clip920)" d="M47.7736 1336.81 L55.4124 1336.81 L55.4124 1310.45 L47.1023 1312.11 L47.1023 1307.85 L55.3661 1306.19 L60.042 1306.19 L60.042 1336.81 L67.6809 1336.81 L67.6809 1340.75 L47.7736 1340.75 L47.7736 1336.81 Z" fill="#000000" fill-rule="evenodd" fill-opacity="1" /><path clip-path="url(#clip920)" d="M51.3615 898.332 L67.6809 898.332 L67.6809 902.268 L45.7366 902.268 L45.7366 898.332 Q48.3986 895.578 52.9819 890.948 Q57.5883 886.295 58.7689 884.953 Q61.0143 882.43 61.8939 880.694 Q62.7967 878.934 62.7967 877.245 Q62.7967 874.49 60.8522 872.754 Q58.9309 871.018 55.8291 871.018 Q53.63 871.018 51.1763 871.782 Q48.7458 872.546 45.968 874.096 L45.968 869.374 Q48.7921 868.24 51.2458 867.661 Q53.6995 867.083 55.7365 867.083 Q61.1068 867.083 64.3013 869.768 Q67.4957 872.453 67.4957 876.944 Q67.4957 879.073 66.6855 880.995 Q65.8985 882.893 63.792 885.485 Q63.2133 886.157 60.1115 889.374 Q57.0096 892.569 51.3615 898.332 Z" fill="#000000" fill-rule="evenodd" fill-opacity="1" /><path clip-path="url(#clip920)" d="M60.5513 445.155 Q63.9078 445.872 65.7827 448.141 Q67.6809 450.409 67.6809 453.743 Q67.6809 458.858 64.1624 461.659 Q60.6439 464.46 54.1624 464.46 Q51.9865 464.46 49.6717 464.02 Q47.3801 463.604 44.9264 462.747 L44.9264 458.233 Q46.8708 459.368 49.1856 459.946 Q51.5004 460.525 54.0236 460.525 Q58.4217 460.525 60.7133 458.789 Q63.0281 457.053 63.0281 453.743 Q63.0281 450.687 60.8754 448.974 Q58.7457 447.238 54.9263 447.238 L50.8986 447.238 L50.8986 443.395 L55.1115 443.395 Q58.5606 443.395 60.3893 442.03 Q62.218 440.641 62.218 438.048 Q62.218 435.386 60.3198 433.974 Q58.4448 432.539 54.9263 432.539 Q53.005 432.539 50.806 432.956 Q48.6069 433.372 45.968 434.252 L45.968 430.085 Q48.6301 429.345 50.9449 428.974 Q53.2828 428.604 55.343 428.604 Q60.667 428.604 63.7689 431.034 Q66.8707 433.442 66.8707 437.562 Q66.8707 440.433 65.2272 442.423 Q63.5837 444.391 60.5513 445.155 Z" fill="#000000" fill-rule="evenodd" fill-opacity="1" /><polyline clip-path="url(#clip922)" style="stroke:#009af9; stroke-linecap:butt; stroke-linejoin:round; stroke-width:4; stroke-opacity:1; fill:none" points="
  229.077,1761.95 236.011,1761.95 242.945,1761.95 249.878,1761.95 256.812,1761.95 263.746,1761.95 270.679,1761.95 277.613,1761.95 284.546,1761.95 291.48,1761.95 
  298.414,1761.95 305.347,1761.95 312.281,1761.95 319.215,1761.95 326.148,1761.95 333.082,1761.95 340.015,1761.95 346.949,1761.95 353.883,1761.95 360.816,1761.95 
  367.75,1761.95 374.684,1761.95 381.617,1761.95 388.551,1761.95 395.485,1761.95 402.418,1761.95 409.352,1761.95 416.285,1761.95 423.219,1761.95 430.153,1761.95 
  437.086,1761.95 444.02,1761.95 450.954,1761.95 457.887,1761.95 464.821,1761.95 471.754,1761.95 478.688,1761.95 485.622,1761.95 492.555,1761.95 499.489,1761.95 
  506.423,1761.95 513.356,1761.95 520.29,1761.95 527.224,1761.95 534.157,1761.95 541.091,1761.95 548.024,1761.95 554.958,1761.95 561.892,1761.95 568.825,1761.95 
  575.759,1761.95 582.693,1761.95 589.626,1761.95 596.56,1761.95 603.493,1761.95 610.427,1761.95 617.361,1761.95 624.294,1761.95 631.228,1761.95 638.162,1761.95 
  645.095,1761.95 652.029,1761.95 658.962,1761.95 665.896,1761.95 672.83,1761.95 679.763,1761.95 686.697,1761.95 693.631,1761.95 700.564,1761.95 707.498,1761.95 
  714.432,1761.95 721.365,1761.95 728.299,1761.95 735.232,1761.95 742.166,1761.95 749.1,1761.95 756.033,1761.95 762.967,1761.95 769.901,1761.95 776.834,1761.95 
  783.768,1761.95 790.701,1761.95 797.635,1761.95 804.569,1761.95 811.502,1761.95 818.436,1761.95 825.37,1761.95 832.303,1761.95 839.237,1746.25 846.171,1721.36 
  853.104,1696.35 860.038,1671.2 866.971,1645.93 873.905,1620.56 880.839,1595.09 887.772,1569.53 894.706,1543.9 901.64,1518.2 908.573,1492.44 915.507,1466.65 
  922.44,1440.82 929.374,1414.97 936.308,1389.11 943.241,1363.25 950.175,1337.41 957.109,1311.6 964.042,1285.82 970.976,1260.1 977.91,1234.43 984.843,1208.84 
  991.777,1183.33 998.71,1157.92 1005.64,1132.62 1012.58,1107.44 1019.51,1082.4 1026.44,1057.5 1033.38,1032.75 1040.31,1008.18 1047.25,983.78 1054.18,959.575 
  1061.11,935.573 1068.05,911.785 1074.98,888.222 1081.91,864.896 1088.85,841.817 1095.78,818.997 1102.71,796.446 1109.65,774.174 1116.58,752.192 1123.52,730.511 
  1130.45,709.139 1137.38,688.087 1144.32,667.364 1151.25,646.98 1158.18,626.943 1165.12,607.263 1172.05,587.949 1178.98,569.008 1185.92,550.448 1192.85,532.279 
  1199.79,514.506 1206.72,497.138 1213.65,480.182 1220.59,463.644 1227.52,447.53 1234.45,431.848 1241.39,416.601 1248.32,401.798 1255.25,387.441 1262.19,373.537 
  1269.12,360.089 1276.06,347.102 1282.99,334.58 1289.92,322.526 1296.86,310.944 1303.79,299.836 1310.72,289.204 1317.66,279.052 1324.59,269.38 1331.52,260.19 
  1338.46,251.483 1345.39,243.261 1352.33,235.522 1359.26,228.268 1366.19,221.497 1373.13,215.21 1380.06,209.404 1386.99,204.079 1393.93,199.233 1400.86,194.863 
  1407.79,190.968 1414.73,187.544 1421.66,184.588 1428.6,182.097 1435.53,180.066 1442.46,178.492 1449.4,177.37 1456.33,176.694 1463.26,176.461 1470.2,176.664 
  1477.13,177.298 1484.06,178.356 1491,179.831 1497.93,181.718 1504.87,184.01 1511.8,186.698 1518.73,189.775 1525.67,193.234 1532.6,197.066 1539.53,201.262 
  1546.47,205.815 1553.4,210.715 1560.33,215.954 1567.27,221.521 1574.2,227.407 1581.14,233.603 1588.07,240.099 1595,246.884 1601.94,253.948 1608.87,261.28 
  1615.8,268.87 1622.74,276.707 1629.67,284.78 1636.6,293.078 1643.54,301.59 1650.47,310.304 1657.41,319.208 1664.34,328.293 1671.27,337.544 1678.21,346.952 
  1685.14,356.504 1692.07,366.188 1699.01,375.993 1705.94,385.906 1712.87,395.916 1719.81,406.012 1726.74,416.179 1733.68,426.409 1740.61,436.687 1747.54,447.002 
  1754.48,457.343 1761.41,467.698 1768.34,478.055 1775.28,488.403 1782.21,498.73 1789.14,509.024 1796.08,519.275 1803.01,529.471 1809.95,539.601 1816.88,549.655 
  1823.81,559.621 1830.75,569.489 1837.68,579.248 1844.61,588.889 1851.55,598.401 1858.48,607.774 1865.41,616.999 1872.35,626.066 1879.28,634.966 1886.22,643.69 
  1893.15,652.229 1900.08,660.575 1907.02,668.72 1913.95,676.655 1920.88,684.372 1927.82,691.865 1934.75,699.126 1941.68,706.148 1948.62,712.925 1955.55,719.451 
  1962.49,725.718 1969.42,731.723 1976.35,737.459 1983.29,742.921 1990.22,748.105 1997.15,753.006 2004.09,757.62 2011.02,761.944 2017.95,765.974 2024.89,769.708 
  2031.82,773.142 2038.76,776.274 2045.69,779.103 2052.62,781.626 2059.56,783.843 2066.49,785.752 2073.42,787.353 2080.36,788.647 2087.29,789.632 2094.22,790.31 
  2101.16,790.681 2108.09,790.747 2115.03,790.51 2121.96,789.97 2128.89,789.132 2135.83,787.996 2142.76,786.567 2149.69,784.848 2156.63,782.842 2163.56,780.554 
  2170.49,777.987 2177.43,775.147 2184.36,772.038 2191.3,768.666 2198.23,765.037 2205.16,761.156 2212.1,757.03 2219.03,752.666 2225.96,748.07 2232.9,743.249 
  2239.83,738.212 2246.76,732.965 2253.7,727.516 2260.63,721.875 2267.56,716.049 2274.5,710.047 2281.43,703.879 2288.37,697.553 2295.3,691.079 2302.23,684.466 
  2309.17,677.725 2316.1,670.866 2323.03,663.898 2329.97,656.833 2336.9,649.68 2343.83,642.451 2350.77,635.156 2357.7,627.807 2364.64,620.415 2371.57,612.99 
  2378.5,605.545 2385.44,598.091 2392.37,590.64 2399.3,583.202 2406.24,575.791 2413.17,568.417 2420.1,561.093 2427.04,553.83 2433.97,546.64 2440.91,539.535 
  2447.84,532.528 2454.77,525.629 2461.71,518.852 2468.64,512.207 2475.57,505.706 2482.51,499.362 2489.44,493.186 2496.37,487.19 2503.31,481.384 2510.24,475.782 
  2517.18,470.393 2524.11,465.229 2531.04,460.302 2537.98,455.622 2544.91,451.2 2551.84,447.047 2558.78,443.173 2565.71,439.589 2572.64,436.305 2579.58,433.33 
  2586.51,430.675 2593.45,428.349 2600.38,426.362 2607.31,424.722 2614.25,423.438 2621.18,422.52 2628.11,421.975 2635.05,421.811 2641.98,422.037 2648.91,422.66 
  2655.85,423.688 2662.78,425.126 2669.72,426.983 2676.65,429.265 2683.58,431.977 2690.52,435.125 2697.45,438.716 2704.38,442.754 2711.32,447.244 2718.25,452.191 
  2725.18,457.598 2732.12,463.47 2739.05,469.81 2745.99,476.622 2752.92,483.908 2759.85,491.67 2766.79,499.912 2773.72,508.634 2780.65,517.838 2787.59,527.525 
  2794.52,537.696 2801.45,548.351 2808.39,559.49 2815.32,571.113 2822.26,583.22 2829.19,595.808 2836.12,608.877 2843.06,622.425 2849.99,636.449 2856.92,650.948 
  2863.86,665.918 2870.79,681.356 2877.72,697.259 2884.66,713.623 2891.59,730.443 2898.53,747.715 2905.46,765.434 2912.39,783.596 2919.33,802.194 2926.26,821.222 
  2933.19,840.675 2940.13,860.546 2947.06,880.829 2953.99,901.515 2960.93,922.599 2967.86,944.072 2974.8,965.927 2981.73,988.155 2988.66,1010.75 2995.6,1033.7 
  3002.53,1056.99 3009.46,1080.63 3016.4,1104.59 3023.33,1128.88 3030.26,1153.47 3037.2,1178.36 3044.13,1203.55 3051.07,1229.01 3058,1254.74 3064.93,1280.73 
  3071.87,1306.96 3078.8,1333.44 3085.73,1360.13 3092.67,1387.04 3099.6,1414.16 3106.53,1441.46 3113.47,1468.95 3120.4,1496.6 3127.34,1524.41 3134.27,1552.36 
  3141.2,1580.45 3148.14,1608.65 3155.07,1636.97 3162,1665.38 3168.94,1693.88 3175.87,1722.45 3182.8,1751.08 3189.74,1761.95 3196.67,1761.95 3203.61,1761.95 
  3210.54,1761.95 3217.47,1761.95 3224.41,1761.95 3231.34,1761.95 3238.27,1761.95 3245.21,1761.95 3252.14,1761.95 3259.07,1761.95 3266.01,1761.95 3272.94,1761.95 
  3279.88,1761.95 3286.81,1761.95 3293.74,1761.95 3300.68,1761.95 3307.61,1761.95 3314.54,1761.95 3321.48,1761.95 3328.41,1761.95 3335.34,1761.95 3342.28,1761.95 
  3349.21,1761.95 3356.15,1761.95 3363.08,1761.95 3370.01,1761.95 3376.95,1761.95 3383.88,1761.95 3390.81,1761.95 3397.75,1761.95 3404.68,1761.95 3411.61,1761.95 
  3418.55,1761.95 3425.48,1761.95 3432.42,1761.95 3439.35,1761.95 3446.28,1761.95 3453.22,1761.95 3460.15,1761.95 3467.08,1761.95 3474.02,1761.95 3480.95,1761.95 
  3487.88,1761.95 3494.82,1761.95 3501.75,1761.95 3508.69,1761.95 3515.62,1761.95 3522.55,1761.95 3529.49,1761.95 3536.42,1761.95 3543.35,1761.95 3550.29,1761.95 
  3557.22,1761.95 3564.15,1761.95 3571.09,1761.95 3578.02,1761.95 3584.95,1761.95 3591.89,1761.95 3598.82,1761.95 3605.76,1761.95 3612.69,1761.95 3619.62,1761.95 
  3626.56,1761.95 3633.49,1761.95 3640.42,1761.95 3647.36,1761.95 3654.29,1761.95 3661.22,1761.95 3668.16,1761.95 3675.09,1761.95 3682.03,1761.95 3688.96,1761.95 
  
  "/>
<polyline clip-path="url(#clip922)" style="stroke:#e26f46; stroke-linecap:butt; stroke-linejoin:round; stroke-width:4; stroke-opacity:1; fill:none" points="
  229.077,1761.95 236.011,1761.95 242.945,1761.95 249.878,1761.95 256.812,1761.95 263.746,1761.95 270.679,1761.95 277.613,1761.95 284.546,1761.95 291.48,1761.95 
  298.414,1761.95 305.347,1761.95 312.281,1761.95 319.215,1761.95 326.148,1761.95 333.082,1761.95 340.015,1761.95 346.949,1761.95 353.883,1761.95 360.816,1761.95 
  367.75,1761.95 374.684,1761.95 381.617,1761.95 388.551,1761.95 395.485,1761.95 402.418,1761.95 409.352,1761.95 416.285,1761.95 423.219,1761.95 430.153,1761.95 
  437.086,1761.95 444.02,1761.95 450.954,1761.95 457.887,1761.95 464.821,1761.95 471.754,1761.95 478.688,1761.95 485.622,1761.95 492.555,1761.95 499.489,1761.95 
  506.423,1761.95 513.356,1761.95 520.29,1761.95 527.224,1761.95 534.157,1761.95 541.091,1761.95 548.024,1761.95 554.958,1761.95 561.892,1761.95 568.825,1761.95 
  575.759,1761.95 582.693,1761.95 589.626,1761.95 596.56,1761.95 603.493,1761.95 610.427,1761.95 617.361,1761.95 624.294,1761.95 631.228,1761.95 638.162,1761.95 
  645.095,1761.95 652.029,1761.95 658.962,1761.95 665.896,1761.95 672.83,1761.95 679.763,1761.95 686.697,1761.95 693.631,1761.95 700.564,1761.95 707.498,1761.95 
  714.432,1761.95 721.365,1761.95 728.299,1761.95 735.232,1761.95 742.166,1761.95 749.1,1761.95 756.033,1761.95 762.967,1761.95 769.901,1761.95 776.834,1761.95 
  783.768,1761.95 790.701,1761.95 797.635,1761.95 804.569,1761.95 811.502,1761.95 818.436,1761.95 825.37,1761.95 832.303,1761.95 839.237,1595.47 846.171,1595.47 
  853.104,1595.47 860.038,1595.47 866.971,1595.47 873.905,1595.47 880.839,1428.99 887.772,1428.99 894.706,1428.99 901.64,1428.99 908.573,1428.99 915.507,1428.99 
  922.44,1428.99 929.374,1262.52 936.308,1262.52 943.241,1262.52 950.175,1262.52 957.109,1262.52 964.042,1262.52 970.976,1096.04 977.91,1096.04 984.843,1096.04 
  991.777,1096.04 998.71,1096.04 1005.64,1096.04 1012.58,1096.04 1019.51,929.566 1026.44,929.566 1033.38,929.566 1040.31,929.566 1047.25,929.566 1054.18,929.566 
  1061.11,929.566 1068.05,763.09 1074.98,763.09 1081.91,763.09 1088.85,763.09 1095.78,763.09 1102.71,763.09 1109.65,763.09 1116.58,596.614 1123.52,596.614 
  1130.45,596.614 1137.38,596.614 1144.32,596.614 1151.25,596.614 1158.18,596.614 1165.12,596.614 1172.05,430.138 1178.98,430.138 1185.92,430.138 1192.85,430.138 
  1199.79,430.138 1206.72,430.138 1213.65,430.138 1220.59,430.138 1227.52,430.138 1234.45,430.138 1241.39,263.663 1248.32,263.663 1255.25,263.663 1262.19,263.663 
  1269.12,263.663 1276.06,263.663 1282.99,263.663 1289.92,263.663 1296.86,263.663 1303.79,263.663 1310.72,263.663 1317.66,263.663 1324.59,263.663 1331.52,97.1868 
  1338.46,97.1868 1345.39,97.1868 1352.33,97.1868 1359.26,97.1868 1366.19,97.1868 1373.13,97.1868 1380.06,97.1868 1386.99,97.1868 1393.93,97.1868 1400.86,97.1868 
  1407.79,97.1868 1414.73,97.1868 1421.66,97.1868 1428.6,97.1868 1435.53,97.1868 1442.46,97.1868 1449.4,97.1868 1456.33,97.1868 1463.26,97.1868 1470.2,97.1868 
  1477.13,97.1868 1484.06,97.1868 1491,97.1868 1497.93,97.1868 1504.87,97.1868 1511.8,97.1868 1518.73,97.1868 1525.67,97.1868 1532.6,97.1868 1539.53,97.1868 
  1546.47,97.1868 1553.4,97.1868 1560.33,97.1868 1567.27,97.1868 1574.2,97.1868 1581.14,97.1868 1588.07,97.1868 1595,97.1868 1601.94,97.1868 1608.87,97.1868 
  1615.8,263.663 1622.74,263.663 1629.67,263.663 1636.6,263.663 1643.54,263.663 1650.47,263.663 1657.41,263.663 1664.34,263.663 1671.27,263.663 1678.21,263.663 
  1685.14,263.663 1692.07,263.663 1699.01,263.663 1705.94,263.663 1712.87,263.663 1719.81,263.663 1726.74,263.663 1733.68,263.663 1740.61,430.138 1747.54,430.138 
  1754.48,430.138 1761.41,430.138 1768.34,430.138 1775.28,430.138 1782.21,430.138 1789.14,430.138 1796.08,430.138 1803.01,430.138 1809.95,430.138 1816.88,430.138 
  1823.81,430.138 1830.75,430.138 1837.68,430.138 1844.61,430.138 1851.55,596.614 1858.48,596.614 1865.41,596.614 1872.35,596.614 1879.28,596.614 1886.22,596.614 
  1893.15,596.614 1900.08,596.614 1907.02,596.614 1913.95,596.614 1920.88,596.614 1927.82,596.614 1934.75,596.614 1941.68,596.614 1948.62,596.614 1955.55,596.614 
  1962.49,596.614 1969.42,596.614 1976.35,596.614 1983.29,596.614 1990.22,596.614 1997.15,596.614 2004.09,596.614 2011.02,596.614 2017.95,763.09 2024.89,763.09 
  2031.82,763.09 2038.76,763.09 2045.69,763.09 2052.62,763.09 2059.56,763.09 2066.49,763.09 2073.42,763.09 2080.36,763.09 2087.29,763.09 2094.22,763.09 
  2101.16,763.09 2108.09,763.09 2115.03,763.09 2121.96,763.09 2128.89,763.09 2135.83,763.09 2142.76,763.09 2149.69,763.09 2156.63,763.09 2163.56,763.09 
  2170.49,763.09 2177.43,763.09 2184.36,763.09 2191.3,763.09 2198.23,763.09 2205.16,596.614 2212.1,596.614 2219.03,596.614 2225.96,596.614 2232.9,596.614 
  2239.83,596.614 2246.76,596.614 2253.7,596.614 2260.63,596.614 2267.56,596.614 2274.5,596.614 2281.43,596.614 2288.37,596.614 2295.3,596.614 2302.23,596.614 
  2309.17,596.614 2316.1,596.614 2323.03,596.614 2329.97,596.614 2336.9,596.614 2343.83,596.614 2350.77,596.614 2357.7,596.614 2364.64,596.614 2371.57,596.614 
  2378.5,596.614 2385.44,596.614 2392.37,430.138 2399.3,430.138 2406.24,430.138 2413.17,430.138 2420.1,430.138 2427.04,430.138 2433.97,430.138 2440.91,430.138 
  2447.84,430.138 2454.77,430.138 2461.71,430.138 2468.64,430.138 2475.57,430.138 2482.51,430.138 2489.44,430.138 2496.37,430.138 2503.31,430.138 2510.24,430.138 
  2517.18,430.138 2524.11,430.138 2531.04,430.138 2537.98,430.138 2544.91,430.138 2551.84,430.138 2558.78,430.138 2565.71,430.138 2572.64,430.138 2579.58,430.138 
  2586.51,430.138 2593.45,263.663 2600.38,263.663 2607.31,263.663 2614.25,263.663 2621.18,263.663 2628.11,263.663 2635.05,263.663 2641.98,263.663 2648.91,263.663 
  2655.85,263.663 2662.78,263.663 2669.72,263.663 2676.65,263.663 2683.58,430.138 2690.52,430.138 2697.45,430.138 2704.38,430.138 2711.32,430.138 2718.25,430.138 
  2725.18,430.138 2732.12,430.138 2739.05,430.138 2745.99,430.138 2752.92,430.138 2759.85,430.138 2766.79,430.138 2773.72,430.138 2780.65,430.138 2787.59,430.138 
  2794.52,430.138 2801.45,430.138 2808.39,430.138 2815.32,430.138 2822.26,430.138 2829.19,430.138 2836.12,596.614 2843.06,596.614 2849.99,596.614 2856.92,596.614 
  2863.86,596.614 2870.79,596.614 2877.72,596.614 2884.66,596.614 2891.59,596.614 2898.53,596.614 2905.46,763.09 2912.39,763.09 2919.33,763.09 2926.26,763.09 
  2933.19,763.09 2940.13,763.09 2947.06,763.09 2953.99,763.09 2960.93,763.09 2967.86,929.566 2974.8,929.566 2981.73,929.566 2988.66,929.566 2995.6,929.566 
  3002.53,929.566 3009.46,929.566 3016.4,1096.04 3023.33,1096.04 3030.26,1096.04 3037.2,1096.04 3044.13,1096.04 3051.07,1096.04 3058,1096.04 3064.93,1262.52 
  3071.87,1262.52 3078.8,1262.52 3085.73,1262.52 3092.67,1262.52 3099.6,1262.52 3106.53,1428.99 3113.47,1428.99 3120.4,1428.99 3127.34,1428.99 3134.27,1428.99 
  3141.2,1428.99 3148.14,1595.47 3155.07,1595.47 3162,1595.47 3168.94,1595.47 3175.87,1595.47 3182.8,1595.47 3189.74,1761.95 3196.67,1761.95 3203.61,1761.95 
  3210.54,1761.95 3217.47,1761.95 3224.41,1761.95 3231.34,1761.95 3238.27,1761.95 3245.21,1761.95 3252.14,1761.95 3259.07,1761.95 3266.01,1761.95 3272.94,1761.95 
  3279.88,1761.95 3286.81,1761.95 3293.74,1761.95 3300.68,1761.95 3307.61,1761.95 3314.54,1761.95 3321.48,1761.95 3328.41,1761.95 3335.34,1761.95 3342.28,1761.95 
  3349.21,1761.95 3356.15,1761.95 3363.08,1761.95 3370.01,1761.95 3376.95,1761.95 3383.88,1761.95 3390.81,1761.95 3397.75,1761.95 3404.68,1761.95 3411.61,1761.95 
  3418.55,1761.95 3425.48,1761.95 3432.42,1761.95 3439.35,1761.95 3446.28,1761.95 3453.22,1761.95 3460.15,1761.95 3467.08,1761.95 3474.02,1761.95 3480.95,1761.95 
  3487.88,1761.95 3494.82,1761.95 3501.75,1761.95 3508.69,1761.95 3515.62,1761.95 3522.55,1761.95 3529.49,1761.95 3536.42,1761.95 3543.35,1761.95 3550.29,1761.95 
  3557.22,1761.95 3564.15,1761.95 3571.09,1761.95 3578.02,1761.95 3584.95,1761.95 3591.89,1761.95 3598.82,1761.95 3605.76,1761.95 3612.69,1761.95 3619.62,1761.95 
  3626.56,1761.95 3633.49,1761.95 3640.42,1761.95 3647.36,1761.95 3654.29,1761.95 3661.22,1761.95 3668.16,1761.95 3675.09,1761.95 3682.03,1761.95 3688.96,1761.95 
  
  "/>
<polyline clip-path="url(#clip922)" style="stroke:#3da44d; stroke-linecap:butt; stroke-linejoin:round; stroke-width:4; stroke-opacity:1; fill:none" points="
  229.077,1761.95 236.011,1761.95 242.945,1761.95 249.878,1761.95 256.812,1761.95 263.746,1761.95 270.679,1761.95 277.613,1761.95 284.546,1761.95 291.48,1761.95 
  298.414,1761.95 305.347,1761.95 312.281,1761.95 319.215,1761.95 326.148,1761.95 333.082,1761.95 340.015,1761.95 346.949,1761.95 353.883,1761.95 360.816,1761.95 
  367.75,1761.95 374.684,1761.95 381.617,1761.95 388.551,1761.95 395.485,1761.95 402.418,1761.95 409.352,1761.95 416.285,1761.95 423.219,1761.95 430.153,1761.95 
  437.086,1761.95 444.02,1761.95 450.954,1761.95 457.887,1761.95 464.821,1761.95 471.754,1761.95 478.688,1761.95 485.622,1761.95 492.555,1761.95 499.489,1761.95 
  506.423,1761.95 513.356,1761.95 520.29,1761.95 527.224,1761.95 534.157,1761.95 541.091,1761.95 548.024,1761.95 554.958,1761.95 561.892,1761.95 568.825,1761.95 
  575.759,1761.95 582.693,1761.95 589.626,1761.95 596.56,1761.95 603.493,1761.95 610.427,1761.95 617.361,1761.95 624.294,1761.95 631.228,1761.95 638.162,1761.95 
  645.095,1761.95 652.029,1761.95 658.962,1761.95 665.896,1761.95 672.83,1761.95 679.763,1761.95 686.697,1761.95 693.631,1761.95 700.564,1761.95 707.498,1761.95 
  714.432,1761.95 721.365,1761.95 728.299,1761.95 735.232,1761.95 742.166,1761.95 749.1,1761.95 756.033,1761.95 762.967,1761.95 769.901,1761.95 776.834,1761.95 
  783.768,1761.95 790.701,1761.95 797.635,1761.95 804.569,1761.95 811.502,1761.95 818.436,1761.95 825.37,1761.95 832.303,1761.95 839.237,1761.95 846.171,1761.95 
  853.104,1761.95 860.038,1761.95 866.971,1761.95 873.905,1761.95 880.839,1595.47 887.772,1595.47 894.706,1595.47 901.64,1595.47 908.573,1595.47 915.507,1595.47 
  922.44,1595.47 929.374,1428.99 936.308,1428.99 943.241,1428.99 950.175,1428.99 957.109,1428.99 964.042,1428.99 970.976,1262.52 977.91,1262.52 984.843,1262.52 
  991.777,1262.52 998.71,1262.52 1005.64,1262.52 1012.58,1262.52 1019.51,1096.04 1026.44,1096.04 1033.38,1096.04 1040.31,1096.04 1047.25,1096.04 1054.18,1096.04 
  1061.11,1096.04 1068.05,929.566 1074.98,929.566 1081.91,929.566 1088.85,929.566 1095.78,929.566 1102.71,929.566 1109.65,929.566 1116.58,763.09 1123.52,763.09 
  1130.45,763.09 1137.38,763.09 1144.32,763.09 1151.25,763.09 1158.18,763.09 1165.12,763.09 1172.05,596.614 1178.98,596.614 1185.92,596.614 1192.85,596.614 
  1199.79,596.614 1206.72,596.614 1213.65,596.614 1220.59,596.614 1227.52,596.614 1234.45,596.614 1241.39,430.138 1248.32,430.138 1255.25,430.138 1262.19,430.138 
  1269.12,430.138 1276.06,430.138 1282.99,430.138 1289.92,430.138 1296.86,430.138 1303.79,430.138 1310.72,430.138 1317.66,430.138 1324.59,430.138 1331.52,263.663 
  1338.46,263.663 1345.39,263.663 1352.33,263.663 1359.26,263.663 1366.19,263.663 1373.13,263.663 1380.06,263.663 1386.99,263.663 1393.93,263.663 1400.86,263.663 
  1407.79,263.663 1414.73,263.663 1421.66,263.663 1428.6,263.663 1435.53,263.663 1442.46,263.663 1449.4,263.663 1456.33,263.663 1463.26,263.663 1470.2,263.663 
  1477.13,263.663 1484.06,263.663 1491,263.663 1497.93,263.663 1504.87,263.663 1511.8,263.663 1518.73,263.663 1525.67,263.663 1532.6,263.663 1539.53,263.663 
  1546.47,263.663 1553.4,263.663 1560.33,263.663 1567.27,263.663 1574.2,263.663 1581.14,263.663 1588.07,263.663 1595,263.663 1601.94,263.663 1608.87,263.663 
  1615.8,430.138 1622.74,430.138 1629.67,430.138 1636.6,430.138 1643.54,430.138 1650.47,430.138 1657.41,430.138 1664.34,430.138 1671.27,430.138 1678.21,430.138 
  1685.14,430.138 1692.07,430.138 1699.01,430.138 1705.94,430.138 1712.87,430.138 1719.81,430.138 1726.74,430.138 1733.68,430.138 1740.61,596.614 1747.54,596.614 
  1754.48,596.614 1761.41,596.614 1768.34,596.614 1775.28,596.614 1782.21,596.614 1789.14,596.614 1796.08,596.614 1803.01,596.614 1809.95,596.614 1816.88,596.614 
  1823.81,596.614 1830.75,596.614 1837.68,596.614 1844.61,596.614 1851.55,763.09 1858.48,763.09 1865.41,763.09 1872.35,763.09 1879.28,763.09 1886.22,763.09 
  1893.15,763.09 1900.08,763.09 1907.02,763.09 1913.95,763.09 1920.88,763.09 1927.82,763.09 1934.75,763.09 1941.68,763.09 1948.62,763.09 1955.55,763.09 
  1962.49,763.09 1969.42,763.09 1976.35,763.09 1983.29,763.09 1990.22,763.09 1997.15,763.09 2004.09,763.09 2011.02,763.09 2017.95,929.566 2024.89,929.566 
  2031.82,929.566 2038.76,929.566 2045.69,929.566 2052.62,929.566 2059.56,929.566 2066.49,929.566 2073.42,929.566 2080.36,929.566 2087.29,929.566 2094.22,929.566 
  2101.16,929.566 2108.09,929.566 2115.03,929.566 2121.96,929.566 2128.89,929.566 2135.83,929.566 2142.76,929.566 2149.69,929.566 2156.63,929.566 2163.56,929.566 
  2170.49,929.566 2177.43,929.566 2184.36,929.566 2191.3,929.566 2198.23,929.566 2205.16,763.09 2212.1,763.09 2219.03,763.09 2225.96,763.09 2232.9,763.09 
  2239.83,763.09 2246.76,763.09 2253.7,763.09 2260.63,763.09 2267.56,763.09 2274.5,763.09 2281.43,763.09 2288.37,763.09 2295.3,763.09 2302.23,763.09 
  2309.17,763.09 2316.1,763.09 2323.03,763.09 2329.97,763.09 2336.9,763.09 2343.83,763.09 2350.77,763.09 2357.7,763.09 2364.64,763.09 2371.57,763.09 
  2378.5,763.09 2385.44,763.09 2392.37,596.614 2399.3,596.614 2406.24,596.614 2413.17,596.614 2420.1,596.614 2427.04,596.614 2433.97,596.614 2440.91,596.614 
  2447.84,596.614 2454.77,596.614 2461.71,596.614 2468.64,596.614 2475.57,596.614 2482.51,596.614 2489.44,596.614 2496.37,596.614 2503.31,596.614 2510.24,596.614 
  2517.18,596.614 2524.11,596.614 2531.04,596.614 2537.98,596.614 2544.91,596.614 2551.84,596.614 2558.78,596.614 2565.71,596.614 2572.64,596.614 2579.58,596.614 
  2586.51,596.614 2593.45,430.138 2600.38,430.138 2607.31,430.138 2614.25,430.138 2621.18,430.138 2628.11,430.138 2635.05,430.138 2641.98,430.138 2648.91,430.138 
  2655.85,430.138 2662.78,430.138 2669.72,430.138 2676.65,430.138 2683.58,596.614 2690.52,596.614 2697.45,596.614 2704.38,596.614 2711.32,596.614 2718.25,596.614 
  2725.18,596.614 2732.12,596.614 2739.05,596.614 2745.99,596.614 2752.92,596.614 2759.85,596.614 2766.79,596.614 2773.72,596.614 2780.65,596.614 2787.59,596.614 
  2794.52,596.614 2801.45,596.614 2808.39,596.614 2815.32,596.614 2822.26,596.614 2829.19,596.614 2836.12,763.09 2843.06,763.09 2849.99,763.09 2856.92,763.09 
  2863.86,763.09 2870.79,763.09 2877.72,763.09 2884.66,763.09 2891.59,763.09 2898.53,763.09 2905.46,929.566 2912.39,929.566 2919.33,929.566 2926.26,929.566 
  2933.19,929.566 2940.13,929.566 2947.06,929.566 2953.99,929.566 2960.93,929.566 2967.86,1096.04 2974.8,1096.04 2981.73,1096.04 2988.66,1096.04 2995.6,1096.04 
  3002.53,1096.04 3009.46,1096.04 3016.4,1262.52 3023.33,1262.52 3030.26,1262.52 3037.2,1262.52 3044.13,1262.52 3051.07,1262.52 3058,1262.52 3064.93,1428.99 
  3071.87,1428.99 3078.8,1428.99 3085.73,1428.99 3092.67,1428.99 3099.6,1428.99 3106.53,1595.47 3113.47,1595.47 3120.4,1595.47 3127.34,1595.47 3134.27,1595.47 
  3141.2,1595.47 3148.14,1761.95 3155.07,1761.95 3162,1761.95 3168.94,1761.95 3175.87,1761.95 3182.8,1761.95 3189.74,1761.95 3196.67,1761.95 3203.61,1761.95 
  3210.54,1761.95 3217.47,1761.95 3224.41,1761.95 3231.34,1761.95 3238.27,1761.95 3245.21,1761.95 3252.14,1761.95 3259.07,1761.95 3266.01,1761.95 3272.94,1761.95 
  3279.88,1761.95 3286.81,1761.95 3293.74,1761.95 3300.68,1761.95 3307.61,1761.95 3314.54,1761.95 3321.48,1761.95 3328.41,1761.95 3335.34,1761.95 3342.28,1761.95 
  3349.21,1761.95 3356.15,1761.95 3363.08,1761.95 3370.01,1761.95 3376.95,1761.95 3383.88,1761.95 3390.81,1761.95 3397.75,1761.95 3404.68,1761.95 3411.61,1761.95 
  3418.55,1761.95 3425.48,1761.95 3432.42,1761.95 3439.35,1761.95 3446.28,1761.95 3453.22,1761.95 3460.15,1761.95 3467.08,1761.95 3474.02,1761.95 3480.95,1761.95 
  3487.88,1761.95 3494.82,1761.95 3501.75,1761.95 3508.69,1761.95 3515.62,1761.95 3522.55,1761.95 3529.49,1761.95 3536.42,1761.95 3543.35,1761.95 3550.29,1761.95 
  3557.22,1761.95 3564.15,1761.95 3571.09,1761.95 3578.02,1761.95 3584.95,1761.95 3591.89,1761.95 3598.82,1761.95 3605.76,1761.95 3612.69,1761.95 3619.62,1761.95 
  3626.56,1761.95 3633.49,1761.95 3640.42,1761.95 3647.36,1761.95 3654.29,1761.95 3661.22,1761.95 3668.16,1761.95 3675.09,1761.95 3682.03,1761.95 3688.96,1761.95 
  
  "/>
<path clip-path="url(#clip920)" d="
M3142.82 313.426 L3670.51 313.426 L3670.51 106.066 L3142.82 106.066  Z
  " fill="#ffffff" fill-rule="evenodd" fill-opacity="1"/>
<polyline clip-path="url(#clip920)" style="stroke:#000000; stroke-linecap:butt; stroke-linejoin:round; stroke-width:4; stroke-opacity:1; fill:none" points="
  3142.82,313.426 3670.51,313.426 3670.51,106.066 3142.82,106.066 3142.82,313.426 
  "/>
<polyline clip-path="url(#clip920)" style="stroke:#009af9; stroke-linecap:butt; stroke-linejoin:round; stroke-width:4; stroke-opacity:1; fill:none" points="
  3183.57,157.906 3428.07,157.906 
  "/>
<path clip-path="url(#clip920)" d="M3485.33 139.167 L3485.33 142.709 L3481.25 142.709 Q3478.96 142.709 3478.06 143.635 Q3477.18 144.561 3477.18 146.968 L3477.18 149.26 L3484.19 149.26 L3484.19 152.57 L3477.18 152.57 L3477.18 175.186 L3472.9 175.186 L3472.9 152.57 L3468.82 152.57 L3468.82 149.26 L3472.9 149.26 L3472.9 147.454 Q3472.9 143.126 3474.91 141.158 Q3476.92 139.167 3481.3 139.167 L3485.33 139.167 Z" fill="#000000" fill-rule="evenodd" fill-opacity="1" /><path clip-path="url(#clip920)" d="M3499.12 139.214 Q3496.02 144.538 3494.52 149.746 Q3493.01 154.954 3493.01 160.301 Q3493.01 165.649 3494.52 170.903 Q3496.04 176.135 3499.12 181.436 L3495.42 181.436 Q3491.95 175.996 3490.21 170.741 Q3488.5 165.487 3488.5 160.301 Q3488.5 155.139 3490.21 149.908 Q3491.92 144.676 3495.42 139.214 L3499.12 139.214 Z" fill="#000000" fill-rule="evenodd" fill-opacity="1" /><path clip-path="url(#clip920)" d="M3515.65 175.857 Q3506.04 175.857 3506.04 162.107 Q3506.04 156.667 3509.63 149.26 L3514.22 149.26 Q3510.91 156.667 3510.91 162.223 Q3510.91 172.246 3516.04 172.246 Q3520.74 172.246 3520.74 159.792 L3524.68 159.792 Q3524.68 172.246 3529.38 172.246 Q3534.52 172.246 3534.52 162.223 Q3534.52 156.667 3531.21 149.26 L3535.79 149.26 Q3539.38 156.667 3539.38 162.107 Q3539.38 175.857 3529.77 175.857 Q3523.48 175.857 3522.71 168.936 Q3521.76 175.857 3515.65 175.857 Z" fill="#000000" fill-rule="evenodd" fill-opacity="1" /><path clip-path="url(#clip920)" d="M3546.41 139.214 L3550.12 139.214 Q3553.59 144.676 3555.3 149.908 Q3557.04 155.139 3557.04 160.301 Q3557.04 165.487 3555.3 170.741 Q3553.59 175.996 3550.12 181.436 L3546.41 181.436 Q3549.49 176.135 3551 170.903 Q3552.53 165.649 3552.53 160.301 Q3552.53 154.954 3551 149.746 Q3549.49 144.538 3546.41 139.214 Z" fill="#000000" fill-rule="evenodd" fill-opacity="1" /><polyline clip-path="url(#clip920)" style="stroke:#e26f46; stroke-linecap:butt; stroke-linejoin:round; stroke-width:4; stroke-opacity:1; fill:none" points="
  3183.57,209.746 3428.07,209.746 
  "/>
<path clip-path="url(#clip920)" d="M3479.68 227.604 Q3474.33 226.748 3471.86 224.502 Q3468.82 221.748 3468.82 216.123 L3468.82 201.1 L3473.13 201.1 L3473.13 215.961 Q3473.13 220.197 3475.1 221.956 Q3476.81 223.484 3479.68 223.808 L3479.68 201.1 L3483.92 201.1 L3483.92 223.785 Q3486.95 223.461 3488.5 221.933 Q3490.47 219.989 3490.47 215.938 L3490.47 201.1 L3494.77 201.1 L3494.77 216.1 Q3494.77 221.933 3491.74 224.479 Q3489.01 226.771 3483.92 227.581 L3483.92 236.887 L3479.68 236.887 L3479.68 227.604 Z" fill="#000000" fill-rule="evenodd" fill-opacity="1" /><path clip-path="url(#clip920)" d="M3513.89 218.252 L3513.89 227.026 L3511.21 227.026 L3511.21 218.345 Q3511.21 216.285 3510.3 215.266 Q3509.4 214.225 3507.6 214.225 Q3505.42 214.225 3504.17 215.475 Q3502.92 216.702 3502.92 218.831 L3502.92 227.026 L3500.21 227.026 L3500.21 212.512 L3502.92 212.512 L3502.92 214.757 Q3503.87 213.461 3505.17 212.813 Q3506.48 212.165 3508.2 212.165 Q3511 212.165 3512.43 213.715 Q3513.89 215.266 3513.89 218.252 Z" fill="#000000" fill-rule="evenodd" fill-opacity="1" /><path clip-path="url(#clip920)" d="M3531.09 191.054 Q3527.99 196.378 3526.48 201.586 Q3524.98 206.794 3524.98 212.141 Q3524.98 217.489 3526.48 222.743 Q3528.01 227.975 3531.09 233.276 L3527.39 233.276 Q3523.92 227.836 3522.18 222.581 Q3520.47 217.327 3520.47 212.141 Q3520.47 206.979 3522.18 201.748 Q3523.89 196.516 3527.39 191.054 L3531.09 191.054 Z" fill="#000000" fill-rule="evenodd" fill-opacity="1" /><path clip-path="url(#clip920)" d="M3547.62 227.697 Q3538.01 227.697 3538.01 213.947 Q3538.01 208.507 3541.6 201.1 L3546.18 201.1 Q3542.87 208.507 3542.87 214.063 Q3542.87 224.086 3548.01 224.086 Q3552.71 224.086 3552.71 211.632 L3556.65 211.632 Q3556.65 224.086 3561.35 224.086 Q3566.48 224.086 3566.48 214.063 Q3566.48 208.507 3563.17 201.1 L3567.76 201.1 Q3571.35 208.507 3571.35 213.947 Q3571.35 227.697 3561.74 227.697 Q3555.44 227.697 3554.68 220.776 Q3553.73 227.697 3547.62 227.697 Z" fill="#000000" fill-rule="evenodd" fill-opacity="1" /><path clip-path="url(#clip920)" d="M3578.38 191.054 L3582.09 191.054 Q3585.56 196.516 3587.27 201.748 Q3589.01 206.979 3589.01 212.141 Q3589.01 217.327 3587.27 222.581 Q3585.56 227.836 3582.09 233.276 L3578.38 233.276 Q3581.46 227.975 3582.97 222.743 Q3584.49 217.489 3584.49 212.141 Q3584.49 206.794 3582.97 201.586 Q3581.46 196.378 3578.38 191.054 Z" fill="#000000" fill-rule="evenodd" fill-opacity="1" /><polyline clip-path="url(#clip920)" style="stroke:#3da44d; stroke-linecap:butt; stroke-linejoin:round; stroke-width:4; stroke-opacity:1; fill:none" points="
  3183.57,261.586 3428.07,261.586 
  "/>
<path clip-path="url(#clip920)" d="M3483.92 242.847 L3483.92 252.407 Q3488.52 252.407 3491.6 255.949 Q3494.77 259.56 3494.77 265.926 Q3494.77 272.292 3491.6 275.903 Q3488.52 279.444 3483.92 279.444 L3483.92 288.727 L3479.68 288.727 L3479.68 279.444 Q3475.07 279.444 3471.97 275.903 Q3468.82 272.292 3468.82 265.926 Q3468.82 259.56 3471.97 255.949 Q3475.07 252.407 3479.68 252.407 L3479.68 242.847 L3483.92 242.847 M3483.92 275.648 Q3486.53 275.648 3488.31 273.264 Q3490.26 270.602 3490.28 265.926 Q3490.3 261.296 3488.31 258.588 Q3486.53 256.204 3483.92 256.204 L3483.92 275.648 M3479.68 275.648 L3479.68 256.204 Q3477.06 256.204 3475.3 258.588 Q3473.29 261.296 3473.31 265.926 Q3473.34 270.602 3475.3 273.264 Q3477.06 275.648 3479.68 275.648 Z" fill="#000000" fill-rule="evenodd" fill-opacity="1" /><path clip-path="url(#clip920)" d="M3513.89 270.092 L3513.89 278.866 L3511.21 278.866 L3511.21 270.185 Q3511.21 268.125 3510.3 267.106 Q3509.4 266.065 3507.6 266.065 Q3505.42 266.065 3504.17 267.315 Q3502.92 268.542 3502.92 270.671 L3502.92 278.866 L3500.21 278.866 L3500.21 264.352 L3502.92 264.352 L3502.92 266.597 Q3503.87 265.301 3505.17 264.653 Q3506.48 264.005 3508.2 264.005 Q3511 264.005 3512.43 265.555 Q3513.89 267.106 3513.89 270.092 Z" fill="#000000" fill-rule="evenodd" fill-opacity="1" /><path clip-path="url(#clip920)" d="M3531.09 242.894 Q3527.99 248.218 3526.48 253.426 Q3524.98 258.634 3524.98 263.981 Q3524.98 269.329 3526.48 274.583 Q3528.01 279.815 3531.09 285.116 L3527.39 285.116 Q3523.92 279.676 3522.18 274.421 Q3520.47 269.167 3520.47 263.981 Q3520.47 258.819 3522.18 253.588 Q3523.89 248.356 3527.39 242.894 L3531.09 242.894 Z" fill="#000000" fill-rule="evenodd" fill-opacity="1" /><path clip-path="url(#clip920)" d="M3547.62 279.537 Q3538.01 279.537 3538.01 265.787 Q3538.01 260.347 3541.6 252.94 L3546.18 252.94 Q3542.87 260.347 3542.87 265.903 Q3542.87 275.926 3548.01 275.926 Q3552.71 275.926 3552.71 263.472 L3556.65 263.472 Q3556.65 275.926 3561.35 275.926 Q3566.48 275.926 3566.48 265.903 Q3566.48 260.347 3563.17 252.94 L3567.76 252.94 Q3571.35 260.347 3571.35 265.787 Q3571.35 279.537 3561.74 279.537 Q3555.44 279.537 3554.68 272.616 Q3553.73 279.537 3547.62 279.537 Z" fill="#000000" fill-rule="evenodd" fill-opacity="1" /><path clip-path="url(#clip920)" d="M3578.38 242.894 L3582.09 242.894 Q3585.56 248.356 3587.27 253.588 Q3589.01 258.819 3589.01 263.981 Q3589.01 269.167 3587.27 274.421 Q3585.56 279.676 3582.09 285.116 L3578.38 285.116 Q3581.46 279.815 3582.97 274.583 Q3584.49 269.329 3584.49 263.981 Q3584.49 258.634 3582.97 253.426 Q3581.46 248.218 3578.38 242.894 Z" fill="#000000" fill-rule="evenodd" fill-opacity="1" /></svg>
